M48
; DRILL file {KiCad (5.1.6)-1} date 01/13/21 18:50:38
; FORMAT={-:-/ absolute / inch / decimal}
; #@! TF.CreationDate,2021-01-13T18:50:38+00:00
; #@! TF.GenerationSoftware,Kicad,Pcbnew,(5.1.6)-1
; #@! TF.FileFunction,Plated,1,4,PTH
FMAT,2
INCH
T1C0.0118
T2C0.0157
T3C0.0315
T4C0.0394
T5C0.0433
%
G90
G05
T1
X1.7589Y-1.749
X1.81Y-1.7687
X2.2589Y-1.5984
X2.2844Y-1.5974
X2.3Y-1.75
X2.312Y-1.5994
X2.3602Y-1.5965
X2.3612Y-1.7726
X2.3868Y-1.5994
X2.4124Y-1.5994
X2.4636Y-1.5994
X2.628Y-1.7313
X2.6299Y-1.8435
X3.2018Y-2.2274
X3.4902Y-2.2264
X3.5138Y-2.0659
X3.5295Y-2.2657
T2
X1.5906Y-1.9183
X1.5915Y-1.5679
X1.6122Y-2.062
X1.6132Y-2.1594
X1.6398Y-1.5108
X1.6447Y-1.8612
X1.6526Y-2.6831
X1.6535Y-2.5356
X1.6545Y-2.3976
X1.753Y-1.8612
X1.7539Y-1.5098
X1.8041Y-2.5354
X1.8061Y-1.9222
X1.8061Y-1.9222
X1.8337Y-2.1683
X1.8346Y-2.063
X1.8396Y-2.4459
X1.8593Y-1.5098
X1.9016Y-2.4075
X1.9016Y-2.4843
X1.9124Y-1.6722
X1.9173Y-1.7648
X1.92Y-1.28
X1.9764Y-1.4154
X2.1191Y-1.6722
X2.1211Y-1.5719
X2.122Y-1.7667
X2.19Y-2.3
X2.22Y-3.01
X2.23Y-1.43
X2.2362Y-2.7687
X2.2717Y-2.935
X2.3051Y-2.064
X2.3051Y-2.1762
X2.313Y-2.4183
X2.313Y-2.5276
X2.32Y-2.61
X2.4Y-1.36
X2.4518Y-2.935
X2.58Y-2.96
X2.59Y-1.36
X2.6654Y-1.626
X2.8789Y-1.9449
X2.88Y-2.9488
X2.8839Y-1.5276
X3.01Y-1.3927
X3.01Y-1.53
X3.01Y-2.27
X3.1191Y-2.128
X3.12Y-1.8
X3.1378Y-1.7293
X3.1378Y-1.6329
X3.2Y-1.57
X3.2047Y-1.43
X3.21Y-1.29
X3.37Y-1.56
X3.39Y-3.0
X3.6191Y-2.127
X3.8002Y-2.1919
X3.9Y-1.93
X3.9Y-2.05
X3.96Y-2.65
X3.9928Y-2.7315
X4.01Y-2.83
X4.09Y-2.73
T3
X2.6203Y-2.5039
X2.6203Y-2.8039
X2.7203Y-2.5039
X2.7203Y-2.8039
X2.8203Y-2.5039
X2.8203Y-2.8039
X2.9203Y-2.5039
X2.9203Y-2.8039
X3.0203Y-2.5039
X3.0203Y-2.8039
X3.1203Y-2.5039
X3.1203Y-2.8039
X3.2203Y-2.5039
X3.2203Y-2.8039
X3.3203Y-2.5039
X3.3203Y-2.8039
X3.4203Y-2.5039
X3.4203Y-2.8039
X3.5203Y-2.5039
X3.5203Y-2.8039
X3.6203Y-2.5039
X3.6203Y-2.8039
X3.7203Y-2.5039
X3.7203Y-2.8039
X3.8203Y-2.5039
X3.8203Y-2.8039
X3.9203Y-2.5039
X3.9203Y-2.8039
X3.2705Y-2.3051
X3.4626Y-2.3051
T4
X3.3142Y-1.1978
X3.4142Y-1.1978
X3.5142Y-1.1978
X3.6142Y-1.1978
X3.7142Y-1.1978
X3.8142Y-1.1978
X3.9142Y-1.1978
X4.0142Y-1.1978
X3.5118Y-3.0945
X3.6118Y-3.0945
X3.7118Y-3.0945
X3.8118Y-3.0945
X3.9118Y-3.0945
X4.0118Y-3.0945
X2.253Y-1.1949
X2.353Y-1.1949
X2.453Y-1.1949
X2.553Y-1.1949
X2.653Y-1.1949
X2.753Y-1.1949
X2.853Y-1.1949
X2.953Y-1.1949
X3.053Y-1.1949
X3.153Y-1.1949
X3.9803Y-2.0433
X3.9803Y-2.1433
X3.9803Y-2.2433
X4.0803Y-2.0433
X4.0803Y-2.1433
X4.0803Y-2.2433
X2.6112Y-3.0955
X2.7112Y-3.0955
X2.8112Y-3.0955
X2.9112Y-3.0955
X3.0112Y-3.0955
X3.1112Y-3.0955
X3.2112Y-3.0955
X3.3112Y-3.0955
T5
X1.5906Y-1.1811
X1.5906Y-1.3583
X1.8465Y-1.1811
X1.8465Y-1.3583
T4
G00X1.6841Y-2.8533
M15
G01X1.6841Y-2.9321
M16
G05
G00X1.7628Y-3.0778
M15
G01X1.8415Y-3.0778
M16
G05
G00X1.9203Y-2.8533
M15
G01X1.9203Y-2.9321
M16
G05
T0
M30
